<?xml version="1.0" standalone="no"?>
<!DOCTYPE svg PUBLIC "-//W3C//DTD SVG 20010904//EN"
 "http://www.w3.org/TR/2001/REC-SVG-20010904/DTD/svg10.dtd">
<svg version="1.0" xmlns="http://www.w3.org/2000/svg"
 width="366.000000pt" height="484.000000pt" viewBox="0 0 366.000000 484.000000"
 preserveAspectRatio="xMidYMid meet">

<g transform="translate(0.000000,484.000000) scale(0.100000,-0.100000)"
fill="#000000" stroke="none">
<path d="M0 2420 l0 -2420 1830 0 1830 0 0 2420 0 2420 -1830 0 -1830 0 0
-2420z m3650 0 l0 -2410 -775 0 -775 0 0 25 c0 22 -3 25 -26 19 -22 -6 -25 -4
-22 12 3 13 11 18 27 16 18 -2 22 2 17 14 -3 8 -6 20 -6 25 0 6 -4 8 -9 5 -5
-3 -14 1 -21 9 -9 11 -9 19 3 35 14 20 15 21 20 3 3 -12 5 -9 6 10 1 17 -3 26
-9 22 -16 -10 -24 26 -11 47 8 12 9 24 3 31 -11 14 -10 106 1 124 4 6 3 23 -3
38 -6 15 -8 31 -5 35 6 10 -10 124 -26 184 -7 26 -13 35 -19 27 -6 -10 -9 -10
-15 -1 -4 7 -2 16 5 20 14 9 4 50 -12 50 -5 0 -7 7 -4 16 4 9 -1 28 -9 41 -11
17 -13 28 -6 36 17 22 20 65 5 78 -16 13 -19 29 -4 29 6 0 10 -7 10 -15 0 -8
7 -15 15 -15 14 0 13 3 -1 25 -9 14 -12 25 -8 25 5 0 -6 10 -23 21 -33 21 -39
30 -26 42 9 9 34 -13 27 -24 -3 -5 2 -9 10 -9 21 0 21 26 0 34 -8 3 -12 10 -9
16 9 15 25 12 25 -5 0 -8 5 -15 10 -15 6 0 10 -7 10 -15 0 -8 5 -15 11 -15 5
0 7 -5 3 -11 -4 -8 -9 -7 -15 2 -16 26 -20 1 -5 -29 11 -21 27 -32 58 -40 54
-14 98 -17 121 -7 10 4 24 2 34 -6 44 -36 -8 22 -86 96 -47 44 -97 94 -113
112 -19 21 -35 30 -45 26 -12 -5 -15 -2 -11 8 4 9 -7 23 -28 37 -44 29 -43 18
1 -25 29 -28 34 -38 24 -49 -9 -11 -8 -18 2 -30 18 -22 -10 -40 -31 -18 -13
13 -13 16 0 24 12 7 11 12 -4 29 -20 23 -36 27 -36 11 0 -5 7 -10 15 -10 8 0
15 -7 15 -16 0 -11 -6 -15 -20 -11 -27 7 -25 -1 5 -25 26 -20 26 -41 -1 -31
-8 3 -13 12 -10 20 3 8 2 12 -3 9 -5 -3 -14 1 -21 9 -7 9 -21 13 -30 10 -9 -3
-23 1 -30 10 -10 12 -9 16 5 21 9 4 20 3 24 -2 5 -9 13 -10 38 -5 4 0 -3 8
-15 17 -21 14 -22 41 -1 29 5 -4 16 0 24 8 13 13 13 17 -1 28 -8 7 -13 18 -10
24 6 17 -65 55 -105 55 l-34 1 25 14 c15 8 19 14 10 14 -19 0 -73 -46 -66 -57
2 -4 -3 -16 -11 -27 -15 -20 -15 -20 -10 2 4 19 2 21 -12 13 -38 -20 -264
-235 -239 -226 16 5 62 -9 114 -36 12 -5 27 -21 33 -34 15 -34 31 -30 31 9 l1
32 21 -25 c11 -14 25 -24 29 -23 5 2 9 -8 9 -21 0 -14 5 -28 10 -31 6 -4 8
-15 5 -24 -3 -10 1 -24 10 -31 8 -7 15 -21 15 -31 0 -16 5 -18 26 -13 20 5 25
3 22 -7 -3 -9 -15 -13 -31 -11 -19 2 -27 -1 -27 -11 0 -9 -3 -22 -6 -31 -4
-11 -1 -16 10 -16 9 0 16 -5 16 -11 0 -5 -4 -8 -9 -5 -14 9 -31 -19 -32 -50 0
-16 -2 -49 -5 -74 -4 -25 -7 -61 -9 -80 -2 -19 -4 -37 -5 -40 -7 -17 -6 -111
1 -116 5 -3 6 -11 2 -17 -10 -15 -11 -167 -1 -161 14 9 21 -19 7 -30 -19 -15
-23 -37 -8 -47 7 -4 9 -14 4 -25 -8 -18 -8 -18 -12 -2 -3 10 -9 18 -15 18 -6
0 -8 -9 -5 -20 3 -11 1 -18 -4 -14 -5 3 -9 -2 -9 -10 0 -14 -83 -16 -810 -16
l-810 0 0 2410 0 2410 1820 0 1820 0 0 -2410z m-1877 -1182 c4 -14 -21 -37
-40 -38 -7 0 -13 5 -13 10 0 6 10 10 23 11 12 0 16 3 10 6 -7 2 -13 9 -13 14
0 14 28 11 33 -3z m42 2 c-3 -5 -10 -10 -16 -10 -5 0 -9 5 -9 10 0 6 7 10 16
10 8 0 12 -4 9 -10z m45 -15 c0 -9 7 -18 15 -21 8 -4 15 -11 15 -16 0 -14 -61
-1 -79 17 -13 12 -11 16 10 24 34 14 39 13 39 -4z m-180 -25 c0 -5 -7 -10 -15
-10 -8 0 -15 5 -15 10 0 6 7 10 15 10 8 0 15 -4 15 -10z m163 -27 c9 -9 -13
-34 -24 -27 -14 8 -11 34 4 34 8 0 17 -3 20 -7z m-83 -19 c0 -17 -22 -14 -28
4 -2 7 3 12 12 12 9 0 16 -7 16 -16z m-75 -3 c7 -12 -12 -24 -25 -16 -11 7 -4
25 10 25 5 0 11 -4 15 -9z m-68 -27 c-9 -9 -28 6 -21 18 4 6 10 6 17 -1 6 -6
8 -13 4 -17z m383 -15 c0 -6 12 -21 27 -35 14 -13 23 -27 20 -31 -8 -8 -77 69
-70 79 6 10 23 0 23 -13z m-230 -4 c0 -8 -7 -15 -15 -15 -16 0 -20 12 -8 23
11 12 23 8 23 -8z m-78 -17 c-6 -6 -16 -7 -22 -3 -9 6 -9 9 1 16 17 10 34 0
21 -13z m-62 -8 c0 -5 -4 -10 -10 -10 -5 0 -10 5 -10 10 0 6 5 10 10 10 6 0
10 -4 10 -10z m275 -40 c3 -5 3 -15 -1 -22 -5 -7 -10 -4 -15 11 -7 17 -14 20
-33 15 -27 -6 -46 13 -25 26 13 9 62 -11 74 -30z m-130 0 c-5 -8 -11 -8 -17
-2 -6 6 -7 16 -3 22 5 8 11 8 17 2 6 -6 7 -16 3 -22z m-75 -5 c0 -8 -4 -15
-10 -15 -5 0 -10 7 -10 15 0 8 5 15 10 15 6 0 10 -7 10 -15z m-55 -5 c3 -5 2
-10 -4 -10 -5 0 -13 5 -16 10 -3 6 -2 10 4 10 5 0 13 -4 16 -10z m221 -25 c4
-8 12 -15 18 -15 16 0 61 -48 53 -56 -9 -9 -28 6 -21 18 4 6 -1 8 -14 4 -14
-5 -21 -1 -25 14 -3 13 -11 18 -20 14 -17 -6 -31 11 -22 26 9 15 25 12 31 -5z
m74 -6 c0 -5 -7 -9 -15 -9 -15 0 -20 12 -9 23 8 8 24 -1 24 -14z m-155 2 c7
-12 -12 -24 -25 -16 -11 7 -4 25 10 25 5 0 11 -4 15 -9z m-74 -14 c-1 -12 -15
-9 -19 4 -3 6 1 10 8 8 6 -3 11 -8 11 -12z m-46 -7 c3 -5 1 -10 -4 -10 -6 0
-11 5 -11 10 0 6 2 10 4 10 3 0 8 -4 11 -10z m300 0 c11 -17 -5 -32 -21 -19
-7 6 -11 15 -8 20 7 12 21 11 29 -1z m-89 -35 c4 -8 11 -15 18 -15 6 0 22 -12
35 -25 18 -20 20 -25 7 -25 -9 0 -16 4 -16 10 0 5 -6 7 -14 4 -8 -3 -16 3 -19
15 -3 14 -11 19 -20 15 -17 -6 -31 11 -22 26 9 15 25 12 31 -5z m-81 -4 c7
-12 -12 -24 -25 -16 -11 7 -4 25 10 25 5 0 11 -4 15 -9z m-65 -11 c0 -5 -4
-10 -10 -10 -5 0 -10 5 -10 10 0 6 5 10 10 10 6 0 10 -4 10 -10z m150 -45 c0
-7 14 -18 30 -24 36 -12 39 -20 5 -13 -14 2 -31 0 -38 -6 -8 -7 -16 -5 -26 5
-12 13 -11 14 8 8 11 -3 21 -2 21 3 0 5 -10 12 -22 15 -18 5 -19 8 -9 21 15
17 31 12 31 -9z m110 11 c0 -3 -4 -8 -10 -11 -5 -3 -10 -1 -10 4 0 6 5 11 10
11 6 0 10 -2 10 -4z m-255 -15 c3 -5 1 -12 -5 -16 -5 -3 -10 1 -10 9 0 18 6
21 15 7z m63 -2 c-2 -6 -8 -10 -13 -10 -5 0 -11 4 -13 10 -2 6 4 11 13 11 9 0
15 -5 13 -11z m91 -69 c-6 -5 -18 -6 -26 -3 -7 3 -21 -1 -30 -8 -14 -12 -16
-12 -11 1 2 8 18 18 34 21 33 6 52 0 33 -11z m-12 -29 c10 -15 8 -18 -8 -17
-11 1 -19 4 -19 9 0 4 0 12 0 17 0 16 14 12 27 -9z m55 -23 c-16 -16 -37 4
-28 28 6 16 8 16 23 1 13 -13 15 -19 5 -29z m-120 17 c0 -5 -5 -11 -11 -13 -6
-2 -11 4 -11 13 0 9 5 15 11 13 6 -2 11 -8 11 -13z m168 -1 c0 -9 -5 -14 -12
-12 -18 6 -21 28 -4 28 9 0 16 -7 16 -16z m-150 -24 c0 -5 -5 -10 -11 -10 -5
0 -7 5 -4 10 3 6 8 10 11 10 2 0 4 -4 4 -10z m104 -37 c8 -21 -10 -41 -24 -27
-11 11 -3 44 10 44 4 0 11 -8 14 -17z m52 2 c3 -8 3 -19 -1 -25 -10 -16 -35 7
-28 26 7 18 22 18 29 -1z m-116 -9 c0 -8 -4 -17 -9 -21 -12 -7 -24 12 -16 25
9 15 25 12 25 -4z m-110 -5 c0 -6 -4 -13 -10 -16 -5 -3 -10 1 -10 9 0 9 5 16
10 16 6 0 10 -4 10 -9z m50 1 c0 -13 -12 -22 -22 -16 -10 6 -1 24 13 24 5 0 9
-4 9 -8z m180 -61 c14 -27 3 -56 -16 -40 -15 12 -19 41 -7 52 9 10 11 9 23
-12z m-40 -21 c0 -3 -11 -7 -25 -8 -23 -2 -34 16 -19 31 6 6 44 -14 44 -23z
m-80 6 c0 -8 -4 -17 -9 -21 -12 -7 -24 12 -16 25 9 15 25 12 25 -4z m164 -2
c11 -27 7 -37 -9 -24 -16 14 -20 40 -6 40 5 0 12 -7 15 -16z m-304 -4 c0 -5
-4 -10 -10 -10 -5 0 -10 5 -10 10 0 6 5 10 10 10 6 0 10 -4 10 -10z m30 0 c0
-5 -4 -10 -10 -10 -5 0 -10 5 -10 10 0 6 5 10 10 10 6 0 10 -4 10 -10z m50 2
c0 -13 -12 -22 -22 -16 -10 6 -1 24 13 24 5 0 9 -4 9 -8z m190 -84 c0 -4 -9
-8 -20 -8 -20 0 -28 29 -13 44 7 7 33 -21 33 -36z m-78 0 c-15 -15 -26 -4 -18
18 5 13 9 15 18 6 9 -9 9 -15 0 -24z m121 13 c8 -31 -9 -47 -22 -22 -12 21 -8
41 8 41 5 0 11 -9 14 -19z m-238 -21 c-5 -8 -11 -8 -17 -2 -6 6 -7 16 -3 22 5
8 11 8 17 2 6 -6 7 -16 3 -22z m65 21 c0 -12 -20 -25 -27 -18 -7 7 6 27 18 27
5 0 9 -4 9 -9z m-150 -11 c0 -5 -4 -10 -10 -10 -5 0 -10 5 -10 10 0 6 5 10 10
10 6 0 10 -4 10 -10z m40 0 c0 -5 -4 -10 -10 -10 -5 0 -10 5 -10 10 0 6 5 10
10 10 6 0 10 -4 10 -10z m123 -21 c-6 -6 -9 -19 -6 -28 3 -12 2 -12 -7 2 -9
14 -9 22 1 33 6 8 14 12 17 9 3 -3 1 -10 -5 -16z m-49 3 c3 -5 -1 -9 -9 -9 -8
0 -12 4 -9 9 3 4 7 8 9 8 2 0 6 -4 9 -8z m150 -65 c-22 -13 -36 1 -23 24 10
20 11 20 24 2 11 -15 11 -19 -1 -26z m60 21 c6 -25 -7 -44 -23 -34 -12 8 -15
39 -4 49 12 12 21 7 27 -15z m-122 -20 c-15 -15 -26 -4 -18 18 5 13 9 15 18 6
9 -9 9 -15 0 -24z m-171 -1 c-13 -13 -26 -3 -16 12 3 6 11 8 17 5 6 -4 6 -10
-1 -17z m50 0 c-13 -13 -26 -3 -16 12 3 6 11 8 17 5 6 -4 6 -10 -1 -17z m61 8
c0 -5 -5 -11 -11 -13 -6 -2 -11 4 -11 13 0 9 5 15 11 13 6 -2 11 -8 11 -13z
m-142 1 c0 -2 -7 -9 -15 -16 -12 -10 -15 -10 -15 4 0 9 7 16 15 16 8 0 15 -2
15 -4z m161 -25 c-9 -6 -11 -16 -7 -27 6 -15 4 -16 -5 -7 -14 14 -5 43 13 43
10 0 9 -3 -1 -9z m46 -16 c0 -8 -4 -12 -9 -9 -5 3 -6 10 -3 15 9 13 12 11 12
-6z m114 -16 c9 -17 8 -23 -2 -30 -22 -14 -29 -11 -29 11 0 11 5 20 11 20 5 0
7 5 4 10 -3 6 -4 10 -1 10 3 0 10 -10 17 -21z m-121 -25 c0 -14 -12 -19 -23
-8 -9 9 4 35 14 28 5 -3 9 -12 9 -20z m55 -4 c-5 -8 -11 -8 -17 -2 -6 6 -7 16
-3 22 5 8 11 8 17 2 6 -6 7 -16 3 -22z m-270 -10 c-5 -8 -11 -8 -17 -2 -6 6
-7 16 -3 22 5 8 11 8 17 2 6 -6 7 -16 3 -22z m41 3 c-10 -10 -19 5 -10 18 6
11 8 11 12 0 2 -7 1 -15 -2 -18z m55 4 c-13 -13 -26 -3 -16 12 3 6 11 8 17 5
6 -4 6 -10 -1 -17z m59 8 c0 -8 -4 -15 -10 -15 -5 0 -10 7 -10 15 0 8 5 15 10
15 6 0 10 -7 10 -15z m52 -87 c-15 -15 -26 -4 -18 18 5 13 9 15 18 6 9 -9 9
-15 0 -24z m60 0 c-15 -15 -26 -4 -18 18 5 13 9 15 18 6 9 -9 9 -15 0 -24z
m64 21 c8 -14 -11 -33 -25 -25 -11 7 -4 36 9 36 5 0 12 -5 16 -11z m-286 -14
c0 -8 -4 -15 -9 -15 -13 0 -22 16 -14 24 11 11 23 6 23 -9z m46 -12 c-10 -10
-19 5 -10 18 6 11 8 11 12 0 2 -7 1 -15 -2 -18z m64 18 c0 -12 -20 -25 -27
-18 -7 7 6 27 18 27 5 0 9 -4 9 -9z m-160 -10 c0 -6 -4 -13 -10 -16 -5 -3 -10
1 -10 9 0 9 5 16 10 16 6 0 10 -4 10 -9z m166 -41 c0 -12 -4 -16 -9 -11 -5 5
-6 14 -3 20 10 15 12 14 12 -9z m-48 -25 c-3 -3 -9 2 -12 12 -6 14 -5 15 5 6
7 -7 10 -15 7 -18z m152 -11 c0 -8 -7 -14 -15 -14 -17 0 -18 2 -9 24 7 18 24
12 24 -10z m60 0 c0 -8 -7 -14 -15 -14 -15 0 -21 21 -9 33 10 9 24 -2 24 -19z
m-341 -10 c-14 -18 -24 -11 -15 11 3 9 11 13 16 10 8 -5 7 -11 -1 -21z m52 3
c-13 -13 -26 -3 -16 12 3 6 11 8 17 5 6 -4 6 -10 -1 -17z m59 8 c0 -8 -7 -15
-15 -15 -16 0 -20 12 -8 23 11 12 23 8 23 -8z m51 -8 c-13 -13 -26 -3 -16 12
3 6 11 8 17 5 6 -4 6 -10 -1 -17z m59 8 c0 -8 -4 -15 -9 -15 -13 0 -22 16 -14
24 11 11 23 6 23 -9z m20 -19 c0 -2 -8 -10 -17 -17 -16 -13 -17 -12 -4 4 13
16 21 21 21 13z m-115 -44 c-3 -3 -11 0 -18 7 -9 10 -8 11 6 5 10 -3 15 -9 12
-12z m53 -7 c-3 -3 -9 2 -12 12 -6 14 -5 15 5 6 7 -7 10 -15 7 -18z m152 -19
c-15 -15 -33 4 -19 20 10 12 14 12 20 2 5 -7 4 -17 -1 -22z m-280 3 c0 -5 -7
-9 -15 -9 -15 0 -20 12 -9 23 8 8 24 -1 24 -14z m51 -2 c-13 -13 -26 -3 -16
12 3 6 11 8 17 5 6 -4 6 -10 -1 -17z m59 9 c0 -8 -4 -17 -9 -21 -12 -7 -24 12
-16 25 9 15 25 12 25 -4z m60 -1 c0 -8 -7 -15 -15 -15 -16 0 -20 12 -8 23 11
12 23 8 23 -8z m52 0 c0 -5 -5 -11 -11 -13 -6 -2 -11 4 -11 13 0 9 5 15 11 13
6 -2 11 -8 11 -13z m-49 -40 c-3 -9 -8 -14 -10 -11 -3 3 -2 9 2 15 9 16 15 13
8 -4z m-48 -23 c-3 -3 -11 0 -18 7 -9 10 -8 11 6 5 10 -3 15 -9 12 -12z m155
-18 c0 -14 -12 -19 -23 -8 -9 9 4 35 14 28 5 -3 9 -12 9 -20z m-290 2 c0 -8
-4 -18 -10 -21 -5 -3 -10 3 -10 14 0 12 5 21 10 21 6 0 10 -6 10 -14z m55 -16
c-5 -8 -11 -8 -17 -2 -6 6 -7 16 -3 22 5 8 11 8 17 2 6 -6 7 -16 3 -22z m56 7
c-13 -13 -26 -3 -16 12 3 6 11 8 17 5 6 -4 6 -10 -1 -17z m63 14 c3 -5 -1 -14
-9 -21 -13 -10 -15 -9 -15 9 0 21 14 28 24 12z m56 -5 c0 -8 -4 -17 -9 -20
-10 -7 -23 19 -14 28 11 11 23 6 23 -8z m-150 -26 c0 -5 -5 -10 -11 -10 -5 0
-7 5 -4 10 3 6 8 10 11 10 2 0 4 -4 4 -10z"/>
<path d="M1585 4565 c-92 -25 -130 -34 -200 -46 -41 -7 -99 -27 -140 -48 -39
-20 -86 -42 -105 -50 -103 -40 -225 -144 -266 -226 -14 -27 -34 -63 -44 -80
-10 -16 -19 -38 -19 -48 -1 -10 -11 -39 -23 -65 -21 -44 -22 -61 -21 -277 l0
-230 42 -105 c22 -58 41 -110 41 -116 0 -6 14 -37 30 -69 17 -32 30 -60 30
-61 0 -1 -9 0 -20 3 -12 3 -20 0 -20 -7 0 -6 9 -14 20 -17 11 -3 20 -9 20 -13
0 -5 3 -17 7 -27 5 -15 4 -16 -8 -6 -8 6 -30 14 -50 18 l-36 7 -7 -55 c-8 -69
13 -181 49 -264 15 -35 34 -63 41 -63 8 0 14 -8 14 -18 0 -30 18 -40 61 -32
22 4 43 10 46 13 6 6 -7 83 -30 182 -7 28 -12 126 -12 225 0 147 3 180 18 209
9 19 17 40 17 48 0 7 3 13 8 13 8 0 42 73 42 91 0 12 31 71 41 79 4 3 10 15
14 28 4 15 12 21 21 18 9 -3 14 1 14 13 0 9 12 28 26 42 14 13 35 41 45 62 12
22 24 35 31 31 7 -4 8 -3 4 4 -4 7 9 27 28 46 l36 34 51 -19 c28 -11 48 -15
44 -9 -6 10 7 14 33 11 6 -1 12 3 12 10 0 9 3 9 14 0 7 -6 22 -8 32 -4 17 6
16 7 -2 14 -18 7 -18 8 1 8 12 1 27 7 35 14 12 10 12 9 1 -5 -18 -24 -5 -22
32 4 24 17 29 19 24 5 -5 -14 -2 -13 26 3 18 11 40 20 49 20 9 0 18 4 20 9 2
5 20 11 41 14 20 3 44 10 52 17 8 7 20 8 27 3 7 -4 56 -8 108 -8 85 0 95 -2
94 -18 -2 -14 1 -15 12 -6 11 9 14 8 14 -4 0 -17 27 -31 35 -17 8 12 40 4 37
-9 -1 -7 3 -11 11 -9 24 6 97 -66 97 -96 0 -16 3 -17 9 -7 7 10 12 8 25 -10
12 -17 19 -21 24 -12 6 9 23 -3 58 -39 27 -28 43 -47 35 -43 -15 9 -9 -7 14
-35 7 -8 20 -49 29 -90 9 -41 20 -84 25 -95 23 -50 32 -98 42 -210 16 -173 19
-183 35 -101 7 37 19 78 27 90 8 11 16 32 19 46 3 14 16 60 27 103 12 43 30
128 41 190 10 62 26 132 36 157 14 40 20 138 11 180 -2 8 -7 38 -11 65 -8 52
-18 82 -43 125 -8 14 -27 51 -42 82 -22 45 -31 55 -41 45 -10 -10 -12 -8 -7 6
9 24 -13 69 -30 63 -15 -6 -35 11 -84 75 -43 57 -102 109 -122 109 -9 0 -24 8
-34 19 -30 30 -134 83 -154 78 -10 -3 -17 -1 -13 4 3 5 2 9 -3 9 -4 0 -46 7
-93 15 -120 22 -361 28 -425 10z m-645 -1537 c21 -35 27 -78 10 -78 -24 0 -36
-51 -28 -122 5 -39 7 -76 4 -82 -2 -6 -16 15 -31 47 -26 55 -27 65 -21 148 4
48 9 95 12 104 10 25 33 17 54 -17z m50 -195 c0 -16 3 -39 6 -53 5 -17 3 -22
-4 -15 -12 12 -21 95 -10 95 5 0 8 -12 8 -27z m20 -108 c15 -18 0 -25 -27 -14
-29 11 -31 39 -3 32 10 -3 24 -11 30 -18z"/>
<path d="M1229 3653 c-13 -16 -12 -17 4 -4 9 7 17 15 17 17 0 8 -8 3 -21 -13z"/>
<path d="M2320 3666 c0 -2 7 -9 15 -16 9 -7 15 -8 15 -2 0 5 -7 12 -15 16 -8
3 -15 4 -15 2z"/>
<path d="M2072 3341 c-8 -4 -25 -7 -39 -5 -32 3 -105 -24 -117 -44 -7 -12 -10
-12 -17 -1 -7 11 -9 10 -9 -4 0 -10 -6 -20 -14 -23 -11 -4 -11 -12 1 -47 23
-68 37 -96 45 -91 4 3 8 -4 8 -15 0 -12 5 -21 11 -21 6 0 18 -8 27 -17 16 -16
16 -16 0 -10 -10 3 -20 2 -23 -2 -4 -8 13 -20 40 -27 6 -1 30 -9 54 -18 55
-20 97 -20 105 -1 3 10 -1 15 -12 16 -13 0 -11 3 5 9 14 6 21 15 17 24 -3 9 2
16 13 19 10 2 -16 3 -59 2 -42 -2 -91 1 -110 6 -29 7 -27 8 12 3 37 -4 43 -3
32 8 -7 7 -33 13 -57 13 -25 0 -45 3 -45 8 0 4 11 7 25 7 15 0 25 6 25 14 0
27 24 22 45 -8 22 -33 43 -41 81 -32 25 7 59 60 49 76 -10 16 8 11 33 -9 24
-21 28 -37 10 -43 -6 -2 -12 -11 -14 -20 -2 -14 3 -14 45 -3 59 16 101 33 101
40 0 4 -4 3 -10 0 -5 -3 -10 -2 -10 4 0 5 7 11 15 13 22 5 -17 65 -52 81 -28
12 -58 36 -52 40 32 22 61 25 95 11 20 -8 41 -13 47 -11 17 7 -63 40 -95 40
-16 0 -28 3 -28 7 0 4 -12 6 -27 4 -15 -1 -32 1 -38 5 -13 11 -96 12 -113 2z
m131 -107 c44 -15 75 -39 65 -50 -3 -2 -21 3 -39 12 -63 32 -69 34 -91 34 -13
0 -30 5 -38 10 -25 16 51 12 103 -6z m-77 -52 c-22 -5 -30 3 -21 18 5 8 11 7
22 -2 15 -12 14 -13 -1 -16z m-56 4 c0 -3 -4 -8 -10 -11 -5 -3 -10 -1 -10 4 0
6 5 11 10 11 6 0 10 -2 10 -4z"/>
<path d="M1239 3300 c-14 -4 -39 -16 -54 -26 -16 -11 -26 -14 -22 -7 6 9 1 10
-23 2 -40 -14 -52 -34 -16 -27 15 3 24 2 19 -2 -4 -5 -19 -10 -33 -13 -20 -3
-19 -5 9 -6 23 -1 32 -5 28 -14 -3 -8 -1 -20 3 -28 6 -8 4 -16 -3 -21 -7 -4
-12 -11 -13 -15 0 -4 -4 -19 -8 -33 -10 -36 9 -80 34 -80 11 0 41 -13 68 -30
26 -16 67 -32 90 -36 23 -4 44 -10 47 -14 14 -23 198 41 218 76 5 8 12 12 18
9 16 -10 22 24 8 42 -13 15 -12 15 9 4 12 -6 22 -17 22 -23 0 -15 15 0 15 15
1 7 6 11 13 9 14 -2 14 3 12 73 -2 59 -24 119 -42 113 -7 -3 -33 4 -58 15 -37
17 -69 21 -180 22 -74 1 -147 -2 -161 -5z m111 -120 c-8 -5 -19 -10 -25 -10
-5 0 -3 5 5 10 8 5 20 10 25 10 6 0 3 -5 -5 -10z m100 -40 c0 -5 -4 -10 -10
-10 -5 0 -10 5 -10 10 0 6 5 10 10 10 6 0 10 -4 10 -10z m69 -24 l33 -25 -31
-16 c-17 -8 -31 -17 -31 -18 0 -2 23 -1 50 3 68 9 63 -3 -7 -19 -56 -12 -104
-14 -168 -7 -46 5 -47 5 -41 15 3 5 -1 12 -10 15 -11 4 -13 13 -8 28 10 35 12
35 45 -5 20 -24 39 -37 55 -37 30 0 74 41 74 70 0 25 -1 25 39 -4z m-109 -126
c0 -5 -5 -10 -11 -10 -5 0 -7 5 -4 10 3 6 8 10 11 10 2 0 4 -4 4 -10z"/>
<path d="M2592 3164 c-15 -10 -20 -20 -14 -27 5 -7 12 -25 16 -40 4 -15 11
-25 16 -22 5 3 12 -11 15 -32 4 -21 8 -45 9 -53 1 -8 6 7 11 33 8 53 -4 148
-20 154 -6 2 -21 -4 -33 -13z"/>
<path d="M1671 3034 c0 -11 3 -14 6 -6 3 7 2 16 -1 19 -3 4 -6 -2 -5 -13z"/>
<path d="M1583 2824 l-28 -26 33 22 c29 20 39 30 28 30 -3 0 -18 -12 -33 -26z"/>
<path d="M1664 2751 c3 -5 16 -11 28 -14 22 -6 22 -5 4 8 -22 17 -40 20 -32 6z"/>
<path d="M1916 2745 c-21 -7 -46 -21 -55 -30 -15 -16 -13 -17 24 -10 22 5 50
9 63 10 27 2 47 19 38 34 -9 14 -22 13 -70 -4z"/>
<path d="M1591 2730 c-13 -6 -31 -8 -41 -5 -31 10 -16 -38 20 -63 31 -21 41
-22 125 -16 49 3 100 6 111 6 16 0 20 5 17 19 -4 14 -14 19 -40 19 -19 0 -46
9 -62 21 -33 24 -96 33 -130 19z m89 -50 c12 -8 9 -10 -13 -10 -16 0 -26 4
-22 10 8 12 16 12 35 0z"/>
<path d="M1955 2690 c-23 -26 -4 -26 26 0 18 15 20 19 8 20 -9 0 -24 -9 -34
-20z"/>
<path d="M1333 2525 c-15 -13 -23 -25 -17 -25 6 0 21 11 34 25 30 32 19 32
-17 0z"/>
<path d="M1368 2503 c-18 -4 -34 -38 -29 -62 1 -7 11 -23 22 -34 10 -11 21
-29 25 -39 3 -10 10 -18 15 -18 6 0 8 -4 5 -9 -3 -5 1 -12 9 -15 8 -3 14 -11
13 -17 -2 -6 8 -15 21 -20 23 -9 24 -9 9 8 -15 17 -14 18 18 20 25 1 41 -5 59
-23 13 -13 29 -24 35 -24 6 0 9 -8 6 -18 -5 -14 0 -18 21 -17 17 0 27 -5 26
-12 -2 -7 0 -12 5 -12 4 1 22 -2 40 -6 25 -6 30 -10 20 -17 -8 -6 1 -8 29 -6
23 2 39 0 37 -3 -8 -13 48 -16 79 -4 18 7 47 18 65 24 17 7 32 17 32 22 0 13
-14 11 -28 -3 -8 -8 -12 -8 -12 -1 0 11 -68 21 -160 25 -25 1 -48 6 -52 12 -4
6 -22 11 -40 11 -22 0 -32 5 -30 14 1 7 -3 19 -9 27 -17 21 2 17 26 -6 17 -16
27 -18 50 -11 17 5 24 10 17 10 -7 1 -18 15 -23 31 -6 17 -17 30 -25 30 -8 0
-14 5 -14 12 0 6 -7 3 -15 -8 -14 -19 -14 -19 -15 2 0 27 38 36 148 33 94 -2
289 18 356 37 50 14 65 9 66 -21 0 -5 8 -2 17 8 16 15 15 18 -6 36 -19 17 -34
19 -87 16 -38 -3 -71 -10 -79 -19 -14 -14 -102 -22 -185 -17 -14 1 -40 0 -58
-2 -18 -2 -44 2 -57 9 -13 7 -33 10 -45 7 -25 -7 -27 12 -2 27 13 8 6 9 -28 3
-78 -12 -135 -10 -132 6 2 10 -1 12 -10 5 -16 -12 -83 -10 -100 3 -7 5 -21 8
-30 6z m222 -113 c0 -5 -4 -10 -10 -10 -5 0 -10 5 -10 10 0 6 5 10 10 10 6 0
10 -4 10 -10z"/>
<path d="M1698 2493 c6 -2 18 -2 25 0 6 3 1 5 -13 5 -14 0 -19 -2 -12 -5z"/>
<path d="M1750 2490 c8 -5 22 -9 30 -9 10 0 8 3 -5 9 -27 12 -43 12 -25 0z"/>
<path d="M1245 2150 c3 -5 8 -10 11 -10 2 0 4 5 4 10 0 6 -5 10 -11 10 -5 0
-7 -4 -4 -10z"/>
<path d="M2366 2115 c-3 -8 -1 -25 4 -37 8 -20 9 -18 9 15 1 39 -3 47 -13 22z"/>
<path d="M1280 2111 c0 -5 5 -13 10 -16 6 -3 10 -2 10 4 0 5 -4 13 -10 16 -5
3 -10 2 -10 -4z"/>
<path d="M1180 2085 c0 -59 103 -237 220 -380 73 -89 268 -278 342 -333 46
-34 63 -41 84 -36 55 14 289 253 428 437 95 127 126 179 126 212 0 29 -18 15
-30 -22 -17 -54 -53 -115 -129 -218 -68 -93 -217 -255 -235 -255 -6 0 -5 5 2
12 7 7 12 18 12 25 0 10 -7 9 -27 -4 -31 -21 -137 -27 -156 -9 -11 10 -28 15
-65 18 -7 1 -10 9 -7 18 3 11 -3 21 -19 30 -22 11 -23 15 -10 27 21 21 17 33
-11 33 -14 0 -25 5 -25 10 0 6 15 8 35 6 36 -5 56 7 30 18 -16 6 -20 41 -6 50
5 4 12 0 14 -6 4 -10 6 -9 6 1 1 8 -5 19 -12 25 -7 6 -10 10 -8 9 2 -2 11 2
18 9 11 9 16 9 22 -1 7 -10 11 -10 22 2 7 7 21 12 31 9 10 -2 18 1 18 9 0 7 3
9 7 6 8 -9 34 13 28 23 -3 5 5 12 17 16 13 4 30 12 39 18 12 8 -15 11 -115 11
-144 0 -209 16 -289 72 -22 16 -47 33 -56 38 -59 37 -79 53 -105 82 -16 18
-33 33 -39 33 -6 0 1 -13 16 -28 15 -15 27 -34 27 -41 0 -7 4 -10 9 -6 5 3 12
1 16 -5 3 -5 1 -10 -5 -10 -6 0 -8 -5 -4 -11 3 -6 14 -9 24 -6 11 3 23 -6 35
-25 9 -16 14 -32 11 -35 -3 -3 -8 2 -12 11 -8 20 -24 21 -24 1 0 -8 5 -15 10
-15 6 0 10 -11 10 -25 0 -14 -5 -25 -11 -25 -5 0 -7 -5 -4 -11 4 -6 12 -8 19
-6 6 2 11 -5 12 -17 0 -11 4 -30 9 -41 8 -20 8 -20 -13 -1 -12 10 -28 16 -37
12 -10 -3 -13 -2 -10 5 10 15 -14 39 -31 32 -8 -3 -21 3 -29 13 -7 10 -22 19
-32 19 -10 0 -17 6 -16 13 2 6 -2 12 -7 12 -6 0 -20 19 -30 43 -11 23 -20 38
-20 32 0 -5 -7 1 -16 13 -9 13 -13 30 -10 38 3 8 2 12 -4 9 -5 -3 -14 13 -20
35 -11 41 -20 52 -20 25z m305 -195 c3 -5 1 -10 -4 -10 -6 0 -11 5 -11 10 0 6
2 10 4 10 3 0 8 -4 11 -10z m75 -104 c0 -5 -11 1 -25 14 -14 13 -25 28 -25 33
0 12 50 -35 50 -47z m50 10 c0 -2 -7 -7 -16 -10 -8 -3 -12 -2 -9 4 6 10 25 14
25 6z m20 -40 c0 -11 -19 -15 -25 -6 -3 5 1 10 9 10 9 0 16 -2 16 -4z m75 -28
c-3 -7 -19 -13 -35 -14 -39 -1 -38 3 3 15 17 5 33 10 34 10 1 1 0 -5 -2 -11z
m5 -43 c11 -13 10 -14 -4 -9 -9 3 -16 10 -16 15 0 13 6 11 20 -6z"/>
<path d="M1395 1950 c3 -5 12 -7 20 -3 21 7 19 13 -6 13 -11 0 -18 -4 -14 -10z"/>
<path d="M1780 1730 c-12 -8 -11 -10 8 -10 12 0 22 5 22 10 0 13 -11 13 -30 0z"/>
<path d="M1753 1703 c-21 -8 -15 -22 7 -16 11 3 20 9 20 14 0 10 -8 10 -27 2z"/>
<path d="M1792 1688 c-7 -7 -12 -16 -12 -21 0 -5 7 -1 16 8 9 9 14 18 12 20
-2 3 -10 -1 -16 -7z"/>
<path d="M1750 1620 c0 -5 5 -10 11 -10 5 0 7 5 4 10 -3 6 -8 10 -11 10 -2 0
-4 -4 -4 -10z"/>
<path d="M1837 1217 c-3 -9 1 -18 9 -21 16 -6 18 2 5 22 -7 11 -9 11 -14 -1z"/>
</g>
</svg>
